# xmcd
#
# Track frame offsets: 
#        150
#        14667
#        29362
#        42770
#        55312
#        68725
#        84695
#        98750
#        114837
#        130280
#        142755
#        159075
#        174450
#        189462
#        200812
#        215215
#        230740
#        244015
#        258392
#        273762
#        287897
#        301892
#
# Disc length: 4206 seconds
#
# Revision: 0
# Processed by: cddbd v1.5.2PL0 Copyright (c) Steve Scherf et al.
# Submitted via: ExactAudioCopy v1.1
#
DISCID=3a106c16
DTITLE=淡谷のり子 - SP盤復刻による 淡谷のり子名唱集 Disc 2 COCA-11215-17
DYEAR=1900
DGENRE=Blues
TTITLE0=嘆きの天使
TTITLE1=やるせなや
TTITLE2=唄わなん恋の唄
TTITLE3=私の故郷
TTITLE4=二人の恋人
TTITLE5=子守唄
TTITLE6=恋の佛蘭西人形
TTITLE7=六月の唄
TTITLE8=十月の唄
TTITLE9=ヴェニ・ヴェン
TTITLE10=ブロンドの夢
TTITLE11=私のリズム
TTITLE12=ドンニャ・マリキータ
TTITLE13=わたしの想い
TTITLE14=ポエマ
TTITLE15=楽しいランデヴー
TTITLE16=ヒターナ・ヒターナ
TTITLE17=思い出のカプリ
TTITLE18=バルセロナ
TTITLE19=伊太利の庭
TTITLE20=ダーダネラ
TTITLE21=リラは咲けど
EXTD=
EXTT0=
EXTT1=
EXTT2=
EXTT3=
EXTT4=
EXTT5=
EXTT6=
EXTT7=
EXTT8=
EXTT9=
EXTT10=
EXTT11=
EXTT12=
EXTT13=
EXTT14=
EXTT15=
EXTT16=
EXTT17=
EXTT18=
EXTT19=
EXTT20=
EXTT21=
PLAYORDER=
